# xmcd CD database file
#
# Track frame offsets:
#	150
#	33183
#	56268
#	73659
#	89939
#	108753
#	136616
#	156423
#	181018
#
# Disc length: 2678 seconds
#
# Revision: 1
# Processed by: cddbd v1.5.2PL0 Copyright (c) Steve Scherf et al.
# Submitted via: CDex 1.70beta2
#
DISCID=6e0a7409
DTITLE=Sade - love delux
DYEAR=1984
DGENRE=Jazz
TTITLE0=no ordinary love
TTITLE1=feel no pain
TTITLE2=I couldn't love you more
TTITLE3=like a tattoo
TTITLE4=kiss of life
TTITLE5=cherish the day
TTITLE6=pearls
TTITLE7=bullet proof soul
TTITLE8=mermaid
EXTD=YEAR: 1984
EXTT0=
EXTT1=
EXTT2=
EXTT3=
EXTT4=
EXTT5=
EXTT6=
EXTT7=
EXTT8=
PLAYORDER=
